<?xml version="1.0" encoding="UTF-8"?> <svg xmlns="http://www.w3.org/2000/svg" viewBox="0 0 300 228.42"><defs><style>.cls-1{fill:#fff;}</style></defs><g id="Calque_2" data-name="Calque 2"><g id="Calque_1-2" data-name="Calque 1"><path class="cls-1" d="M80.75,47.82A18,18,0,0,0,76,45a12.72,12.72,0,0,0-4.59-.92,7.41,7.41,0,0,0-4.58,1.33,4.14,4.14,0,0,0-1.77,3.48A3.47,3.47,0,0,0,66,51.3,7.77,7.77,0,0,0,68.29,53a19.3,19.3,0,0,0,3.26,1.22c1.2.35,2.4.72,3.58,1.11q7.11,2.37,10.39,6.32t3.3,10.32a20.14,20.14,0,0,1-1.45,7.77,16.19,16.19,0,0,1-4.21,6,19.62,19.62,0,0,1-6.81,3.85,28.36,28.36,0,0,1-9.13,1.36,33.61,33.61,0,0,1-19.6-6.28l6.21-11.69a24.88,24.88,0,0,0,6.44,4.29,15.39,15.39,0,0,0,6.28,1.41A7.53,7.53,0,0,0,71.84,77a5,5,0,0,0,1.74-3.7,5.11,5.11,0,0,0-.44-2.18,4.76,4.76,0,0,0-1.48-1.7A11.82,11.82,0,0,0,69,67.94c-1.11-.45-2.46-.94-4-1.48-1.88-.59-3.71-1.25-5.51-2a17.24,17.24,0,0,1-4.81-2.85,13.08,13.08,0,0,1-3.4-4.47,15.73,15.73,0,0,1-1.3-6.85,19.8,19.8,0,0,1,1.37-7.5,16.56,16.56,0,0,1,3.85-5.77,17,17,0,0,1,6.06-3.73,22.89,22.89,0,0,1,8-1.33,35.31,35.31,0,0,1,8.65,1.14,38.32,38.32,0,0,1,8.65,3.37Z"></path><path class="cls-1" d="M119.43,45.82V89.31H104.94V45.82H93V33.55h38.31V45.82Z"></path><path class="cls-1" d="M169.36,79.62H148.64l-3.32,9.69H129.86l21.23-55.76h15.82l21.23,55.76H172.68Zm-3.85-11L159,50,152.49,68.6Z"></path><path class="cls-1" d="M240.87,89.31h-18L209,67.86V89.31H194.5V33.55h22.56a22.19,22.19,0,0,1,8.13,1.36,15.39,15.39,0,0,1,9.14,9.21,19.17,19.17,0,0,1,1.14,6.66q0,6.36-3.07,10.32a15.42,15.42,0,0,1-9.06,5.36ZM209,58.47h2.74c2.86,0,5.06-.59,6.58-1.77a6.09,6.09,0,0,0,2.3-5.11,6.06,6.06,0,0,0-2.3-5.1c-1.52-1.18-3.72-1.77-6.58-1.77H209Z"></path><path class="cls-1" d="M268.16,45.82V89.31h-14.5V45.82h-11.9V33.55h38.31V45.82Z"></path><path class="cls-1" d="M103.31,138.89v43.48h17.38v12.28H88.82V138.89Z"></path><path class="cls-1" d="M142.65,138.89v55.76H128.16V138.89Z"></path><path class="cls-1" d="M154.34,194.65V138.89h14.49L195.61,173V138.89H210v55.76H195.61l-26.78-34.1v34.1Z"></path><path class="cls-1" d="M253.45,151.16H236.21v9.32h16.27v12.28H236.21v9.61h17.24v12.28H221.72V138.89h31.73Z"></path><polygon class="cls-1" points="150 123.26 281.89 123.26 281.89 210.31 225.12 210.31 225.12 228.42 300 228.42 300 105.15 150 105.15 18.11 105.15 18.11 18.11 74.88 18.11 74.88 0 0 0 0 123.26 150 123.26"></polygon></g></g></svg> 